<mxfile host="Electron" agent="Mozilla/5.0 (Windows NT 10.0; Win64; x64) AppleWebKit/537.36 (KHTML, like Gecko) draw.io/26.0.16 Chrome/132.0.6834.196 Electron/34.2.0 Safari/537.36" version="26.0.16">
  <diagram name="Страница — 1" id="TAW8KFkStnvmgnlksh7M">
    <mxGraphModel dx="989" dy="582" grid="1" gridSize="10" guides="1" tooltips="1" connect="1" arrows="1" fold="1" page="1" pageScale="1" pageWidth="827" pageHeight="1169" math="0" shadow="0">
      <root>
        <mxCell id="0" />
        <mxCell id="1" parent="0" />
        <mxCell id="nFcUpBl-7Q-yPQqDxXo0-2" value="" style="rounded=0;whiteSpace=wrap;html=1;dashed=1;" vertex="1" parent="1">
          <mxGeometry x="110" y="110" width="780" height="540" as="geometry" />
        </mxCell>
        <mxCell id="nFcUpBl-7Q-yPQqDxXo0-28" value="" style="rounded=0;whiteSpace=wrap;html=1;dashed=1;" vertex="1" parent="1">
          <mxGeometry x="350" y="320" width="320" height="310" as="geometry" />
        </mxCell>
        <mxCell id="nFcUpBl-7Q-yPQqDxXo0-26" value="" style="rounded=0;whiteSpace=wrap;html=1;dashed=1;" vertex="1" parent="1">
          <mxGeometry x="285" y="140" width="555" height="145" as="geometry" />
        </mxCell>
        <mxCell id="nFcUpBl-7Q-yPQqDxXo0-3" value="Recruitment agency" style="text;html=1;align=center;verticalAlign=middle;resizable=0;points=[];autosize=1;strokeColor=none;fillColor=none;" vertex="1" parent="1">
          <mxGeometry x="120" y="120" width="130" height="30" as="geometry" />
        </mxCell>
        <mxCell id="nFcUpBl-7Q-yPQqDxXo0-4" value="«User Management»&lt;br&gt;&lt;b&gt;Component&lt;/b&gt;" style="html=1;dropTarget=0;whiteSpace=wrap;" vertex="1" parent="1">
          <mxGeometry x="380" y="360" width="120" height="80" as="geometry" />
        </mxCell>
        <mxCell id="nFcUpBl-7Q-yPQqDxXo0-5" value="" style="shape=module;jettyWidth=8;jettyHeight=4;" vertex="1" parent="nFcUpBl-7Q-yPQqDxXo0-4">
          <mxGeometry x="1" width="20" height="20" relative="1" as="geometry">
            <mxPoint x="-27" y="7" as="offset" />
          </mxGeometry>
        </mxCell>
        <mxCell id="nFcUpBl-7Q-yPQqDxXo0-25" style="edgeStyle=orthogonalEdgeStyle;rounded=0;orthogonalLoop=1;jettySize=auto;html=1;entryX=0.5;entryY=1;entryDx=0;entryDy=0;dashed=1;" edge="1" parent="1" source="nFcUpBl-7Q-yPQqDxXo0-8" target="nFcUpBl-7Q-yPQqDxXo0-23">
          <mxGeometry relative="1" as="geometry" />
        </mxCell>
        <mxCell id="nFcUpBl-7Q-yPQqDxXo0-8" value="«Application&amp;amp;Offer»&lt;br&gt;&lt;b&gt;Component&lt;/b&gt;" style="html=1;dropTarget=0;whiteSpace=wrap;" vertex="1" parent="1">
          <mxGeometry x="520" y="460" width="120" height="80" as="geometry" />
        </mxCell>
        <mxCell id="nFcUpBl-7Q-yPQqDxXo0-9" value="" style="shape=module;jettyWidth=8;jettyHeight=4;" vertex="1" parent="nFcUpBl-7Q-yPQqDxXo0-8">
          <mxGeometry x="1" width="20" height="20" relative="1" as="geometry">
            <mxPoint x="-27" y="7" as="offset" />
          </mxGeometry>
        </mxCell>
        <mxCell id="nFcUpBl-7Q-yPQqDxXo0-10" value="«Reporting»&lt;br&gt;&lt;b&gt;Component&lt;/b&gt;" style="html=1;dropTarget=0;whiteSpace=wrap;" vertex="1" parent="1">
          <mxGeometry x="520" y="360" width="120" height="80" as="geometry" />
        </mxCell>
        <mxCell id="nFcUpBl-7Q-yPQqDxXo0-11" value="" style="shape=module;jettyWidth=8;jettyHeight=4;" vertex="1" parent="nFcUpBl-7Q-yPQqDxXo0-10">
          <mxGeometry x="1" width="20" height="20" relative="1" as="geometry">
            <mxPoint x="-27" y="7" as="offset" />
          </mxGeometry>
        </mxCell>
        <mxCell id="nFcUpBl-7Q-yPQqDxXo0-12" value="«DAL»&lt;br&gt;&lt;b&gt;Component&lt;/b&gt;" style="html=1;dropTarget=0;whiteSpace=wrap;" vertex="1" parent="1">
          <mxGeometry x="510" y="180" width="120" height="80" as="geometry" />
        </mxCell>
        <mxCell id="nFcUpBl-7Q-yPQqDxXo0-13" value="" style="shape=module;jettyWidth=8;jettyHeight=4;" vertex="1" parent="nFcUpBl-7Q-yPQqDxXo0-12">
          <mxGeometry x="1" width="20" height="20" relative="1" as="geometry">
            <mxPoint x="-27" y="7" as="offset" />
          </mxGeometry>
        </mxCell>
        <mxCell id="nFcUpBl-7Q-yPQqDxXo0-18" style="edgeStyle=orthogonalEdgeStyle;rounded=0;orthogonalLoop=1;jettySize=auto;html=1;entryX=0;entryY=0.5;entryDx=0;entryDy=0;dashed=1;" edge="1" parent="1" source="nFcUpBl-7Q-yPQqDxXo0-14" target="nFcUpBl-7Q-yPQqDxXo0-4">
          <mxGeometry relative="1" as="geometry" />
        </mxCell>
        <mxCell id="nFcUpBl-7Q-yPQqDxXo0-14" value="«Auth»&lt;br&gt;&lt;b&gt;Component&lt;/b&gt;" style="html=1;dropTarget=0;whiteSpace=wrap;" vertex="1" parent="1">
          <mxGeometry x="130" y="360" width="120" height="80" as="geometry" />
        </mxCell>
        <mxCell id="nFcUpBl-7Q-yPQqDxXo0-15" value="" style="shape=module;jettyWidth=8;jettyHeight=4;" vertex="1" parent="nFcUpBl-7Q-yPQqDxXo0-14">
          <mxGeometry x="1" width="20" height="20" relative="1" as="geometry">
            <mxPoint x="-27" y="7" as="offset" />
          </mxGeometry>
        </mxCell>
        <mxCell id="nFcUpBl-7Q-yPQqDxXo0-20" value="" style="group" vertex="1" connectable="0" parent="1">
          <mxGeometry x="380" y="460" width="120" height="150" as="geometry" />
        </mxCell>
        <mxCell id="nFcUpBl-7Q-yPQqDxXo0-6" value="" style="html=1;dropTarget=0;whiteSpace=wrap;" vertex="1" parent="nFcUpBl-7Q-yPQqDxXo0-20">
          <mxGeometry width="120" height="150" as="geometry" />
        </mxCell>
        <mxCell id="nFcUpBl-7Q-yPQqDxXo0-7" value="" style="shape=module;jettyWidth=8;jettyHeight=4;" vertex="1" parent="nFcUpBl-7Q-yPQqDxXo0-6">
          <mxGeometry x="1" width="20" height="20" relative="1" as="geometry">
            <mxPoint x="-27" y="7" as="offset" />
          </mxGeometry>
        </mxCell>
        <mxCell id="nFcUpBl-7Q-yPQqDxXo0-16" value="Financial Module" style="shape=module;align=left;spacingLeft=20;align=center;verticalAlign=top;whiteSpace=wrap;html=1;" vertex="1" parent="nFcUpBl-7Q-yPQqDxXo0-20">
          <mxGeometry x="10" y="90" width="100" height="50" as="geometry" />
        </mxCell>
        <mxCell id="nFcUpBl-7Q-yPQqDxXo0-17" value="&lt;span style=&quot;text-wrap-mode: wrap;&quot;&gt;«Vacancy»&lt;/span&gt;&lt;br style=&quot;text-wrap-mode: wrap;&quot;&gt;&lt;b style=&quot;text-wrap-mode: wrap;&quot;&gt;Component&lt;/b&gt;" style="text;html=1;align=center;verticalAlign=middle;resizable=0;points=[];autosize=1;strokeColor=none;fillColor=none;" vertex="1" parent="nFcUpBl-7Q-yPQqDxXo0-20">
          <mxGeometry x="15" y="20" width="90" height="40" as="geometry" />
        </mxCell>
        <mxCell id="nFcUpBl-7Q-yPQqDxXo0-21" value="«S3»&lt;br&gt;&lt;b&gt;Component&lt;/b&gt;" style="html=1;dropTarget=0;whiteSpace=wrap;" vertex="1" parent="1">
          <mxGeometry x="350" y="180" width="120" height="80" as="geometry" />
        </mxCell>
        <mxCell id="nFcUpBl-7Q-yPQqDxXo0-22" value="" style="shape=module;jettyWidth=8;jettyHeight=4;" vertex="1" parent="nFcUpBl-7Q-yPQqDxXo0-21">
          <mxGeometry x="1" width="20" height="20" relative="1" as="geometry">
            <mxPoint x="-27" y="7" as="offset" />
          </mxGeometry>
        </mxCell>
        <mxCell id="nFcUpBl-7Q-yPQqDxXo0-23" value="«SMS»&lt;br&gt;&lt;b&gt;Component&lt;/b&gt;" style="html=1;dropTarget=0;whiteSpace=wrap;" vertex="1" parent="1">
          <mxGeometry x="670" y="180" width="120" height="80" as="geometry" />
        </mxCell>
        <mxCell id="nFcUpBl-7Q-yPQqDxXo0-24" value="" style="shape=module;jettyWidth=8;jettyHeight=4;" vertex="1" parent="nFcUpBl-7Q-yPQqDxXo0-23">
          <mxGeometry x="1" width="20" height="20" relative="1" as="geometry">
            <mxPoint x="-27" y="7" as="offset" />
          </mxGeometry>
        </mxCell>
        <mxCell id="nFcUpBl-7Q-yPQqDxXo0-27" value="Infrastructure" style="text;html=1;align=center;verticalAlign=middle;resizable=0;points=[];autosize=1;strokeColor=none;fillColor=none;" vertex="1" parent="1">
          <mxGeometry x="525" y="140" width="90" height="30" as="geometry" />
        </mxCell>
        <mxCell id="nFcUpBl-7Q-yPQqDxXo0-29" value="Application Domain" style="text;html=1;align=center;verticalAlign=middle;resizable=0;points=[];autosize=1;strokeColor=none;fillColor=none;" vertex="1" parent="1">
          <mxGeometry x="445" y="320" width="130" height="30" as="geometry" />
        </mxCell>
        <mxCell id="nFcUpBl-7Q-yPQqDxXo0-30" style="edgeStyle=orthogonalEdgeStyle;rounded=0;orthogonalLoop=1;jettySize=auto;html=1;entryX=0.402;entryY=0.99;entryDx=0;entryDy=0;entryPerimeter=0;endArrow=halfCircle;endFill=0;exitX=0.497;exitY=0.002;exitDx=0;exitDy=0;exitPerimeter=0;" edge="1" parent="1" source="nFcUpBl-7Q-yPQqDxXo0-29" target="nFcUpBl-7Q-yPQqDxXo0-26">
          <mxGeometry relative="1" as="geometry" />
        </mxCell>
      </root>
    </mxGraphModel>
  </diagram>
</mxfile>
